<svg width="20" height="20" viewBox="0 0 20 20" fill="none" xmlns="http://www.w3.org/2000/svg">
<path id="Vector" d="M7.858 17.71L10 14H3.07C4.11953 15.8151 5.83831 17.1469 7.858 17.71ZM2.252 12H6.536L3.07 5.999C2.36668 7.21495 1.99753 8.5953 2 10C2 10.69 2.088 11.36 2.252 12ZM4.395 4.292L6.535 8L10 2C7.90297 1.99727 5.88927 2.82071 4.395 4.292ZM12.142 2.29L10 6H16.93C15.8805 4.18487 14.1617 2.85307 12.142 2.29ZM17.748 8H13.464L16.929 14.001C17.6326 12.7851 18.0021 11.4048 18 10C18.0007 9.32537 17.916 8.65337 17.748 8ZM15.605 15.708L13.465 12L10 18C12.097 18.0027 14.1107 17.1793 15.605 15.708ZM10 20C4.477 20 0 15.523 0 10C0 4.477 4.477 0 10 0C15.523 0 20 4.477 20 10C20 15.523 15.523 20 10 20ZM11.155 8H8.845L7.691 10L8.845 12H11.155L12.309 10L11.155 8Z" fill="#FFA600"/>
</svg>
